<?xml version="1.0" encoding="UTF-8" standalone="no"?>
<!-- Created with Inkscape (http://www.inkscape.org/) -->

<svg
   xmlns:dc="http://purl.org/dc/elements/1.1/"
   xmlns:cc="http://creativecommons.org/ns#"
   xmlns:rdf="http://www.w3.org/1999/02/22-rdf-syntax-ns#"
   xmlns:svg="http://www.w3.org/2000/svg"
   xmlns="http://www.w3.org/2000/svg"
   xmlns:sodipodi="http://sodipodi.sourceforge.net/DTD/sodipodi-0.dtd"
   xmlns:inkscape="http://www.inkscape.org/namespaces/inkscape"
   width="210mm"
   height="297mm"
   viewBox="0 0 744.09448819 1052.3622047"
   id="svg2"
   version="1.1"
   inkscape:version="0.91 r13725"
   sodipodi:docname="Logo.svg">
  <defs
     id="defs4">
    <clipPath
       clipPathUnits="userSpaceOnUse"
       id="clipPath4140">
      <rect
         style="opacity:1;fill:#000000;fill-opacity:0.4070352;stroke:none;stroke-width:0.057;stroke-miterlimit:4;stroke-dasharray:none;stroke-dashoffset:0;stroke-opacity:1"
         id="rect4142"
         width="92.934029"
         height="147.48228"
         x="189.90869"
         y="122.0117" />
    </clipPath>
  </defs>
  <sodipodi:namedview
     id="base"
     pagecolor="#ffffff"
     bordercolor="#666666"
     borderopacity="1.0"
     inkscape:pageopacity="0.0"
     inkscape:pageshadow="2"
     inkscape:zoom="0.98994949"
     inkscape:cx="391.57758"
     inkscape:cy="895.9558"
     inkscape:document-units="px"
     inkscape:current-layer="layer1"
     showgrid="false"
     inkscape:window-width="1280"
     inkscape:window-height="737"
     inkscape:window-x="-8"
     inkscape:window-y="-8"
     inkscape:window-maximized="1" />
  <metadata
     id="metadata7">
    <rdf:RDF>
      <cc:Work
         rdf:about="">
        <dc:format>image/svg+xml</dc:format>
        <dc:type
           rdf:resource="http://purl.org/dc/dcmitype/StillImage" />
        <dc:title />
      </cc:Work>
    </rdf:RDF>
  </metadata>
  <g
     inkscape:label="Ebene 1"
     inkscape:groupmode="layer"
     id="layer1">
    <path
       inkscape:export-ydpi="300"
       inkscape:export-xdpi="300"
       transform="matrix(-1,0,0,1,668.90218,-4.0406102)"
       clip-path="url(#clipPath4140)"
       d="m 325.26913,243.23003 -68.9947,18.48707 -50.50763,-50.50763 18.48708,-68.9947 68.9947,-18.48708 50.50763,50.50763 z"
       inkscape:randomized="0"
       inkscape:rounded="0"
       inkscape:flatsided="true"
       sodipodi:arg2="1.3089969"
       sodipodi:arg1="0.78539816"
       sodipodi:r2="61.858955"
       sodipodi:r1="71.428574"
       sodipodi:cy="192.7224"
       sodipodi:cx="274.76151"
       sodipodi:sides="6"
       id="path4156"
       style="opacity:1;fill:#ffffff;fill-opacity:1;stroke:none;stroke-width:0.057;stroke-miterlimit:4;stroke-dasharray:none;stroke-dashoffset:0;stroke-opacity:1"
       sodipodi:type="star" />
    <path
       inkscape:export-ydpi="300"
       inkscape:export-xdpi="300"
       transform="matrix(-0.99986889,0.01619297,0.01619297,0.99986889,672.5359,-2.0704759)"
       inkscape:transform-center-y="-13.076705"
       inkscape:transform-center-x="3.0921618"
       d="m 284.28571,126.64792 -54.73168,11.59935 17.32051,-53.198703 z"
       inkscape:randomized="0"
       inkscape:rounded="0"
       inkscape:flatsided="true"
       sodipodi:arg2="1.3619552"
       sodipodi:arg1="0.31475766"
       sodipodi:r2="16.150599"
       sodipodi:r1="32.301197"
       sodipodi:cy="116.64792"
       sodipodi:cx="253.57143"
       sodipodi:sides="3"
       id="path4158"
       style="opacity:1;fill:#ffffff;fill-opacity:1;stroke:none;stroke-width:0.057;stroke-miterlimit:4;stroke-dasharray:none;stroke-dashoffset:0;stroke-opacity:1"
       sodipodi:type="star" />
    <path
       sodipodi:type="star"
       style="opacity:1;fill:#000000;fill-opacity:0.4070352;stroke:none;stroke-width:0.057;stroke-miterlimit:4;stroke-dasharray:none;stroke-dashoffset:0;stroke-opacity:1"
       id="path4136"
       sodipodi:sides="6"
       sodipodi:cx="274.76151"
       sodipodi:cy="192.7224"
       sodipodi:r1="71.428574"
       sodipodi:r2="61.858955"
       sodipodi:arg1="0.78539816"
       sodipodi:arg2="1.3089969"
       inkscape:flatsided="true"
       inkscape:rounded="0"
       inkscape:randomized="0"
       d="m 325.26913,243.23003 -68.9947,18.48707 -50.50763,-50.50763 18.48708,-68.9947 68.9947,-18.48708 50.50763,50.50763 z"
       clip-path="url(#clipPath4140)"
       transform="matrix(-1,0,0,1,668.90218,-4.0406102)"
       inkscape:export-xdpi="300"
       inkscape:export-ydpi="300" />
    <path
       sodipodi:type="star"
       style="opacity:1;fill:#000000;fill-opacity:0.4070352;stroke:none;stroke-width:0.057;stroke-miterlimit:4;stroke-dasharray:none;stroke-dashoffset:0;stroke-opacity:1"
       id="path4144"
       sodipodi:sides="3"
       sodipodi:cx="253.57143"
       sodipodi:cy="116.64792"
       sodipodi:r1="32.301197"
       sodipodi:r2="16.150599"
       sodipodi:arg1="0.31475766"
       sodipodi:arg2="1.3619552"
       inkscape:flatsided="true"
       inkscape:rounded="0"
       inkscape:randomized="0"
       d="m 284.28571,126.64792 -54.73168,11.59935 17.32051,-53.198703 z"
       inkscape:transform-center-x="3.0921618"
       inkscape:transform-center-y="-13.076705"
       transform="matrix(-0.99986889,0.01619297,0.01619297,0.99986889,672.5359,-2.0704759)"
       inkscape:export-xdpi="300"
       inkscape:export-ydpi="300" />
    <ellipse
       style="opacity:1;fill:#668000;fill-opacity:1;stroke:none;stroke-width:0.057;stroke-miterlimit:4;stroke-dasharray:none;stroke-dashoffset:0;stroke-opacity:1"
       id="path4147"
       cx="-418.13181"
       cy="163.93304"
       rx="17.930208"
       ry="11.616755"
       transform="scale(-1,1)"
       inkscape:export-xdpi="300"
       inkscape:export-ydpi="300" />
    <ellipse
       style="opacity:1;fill:#000000;fill-opacity:1;stroke:none;stroke-width:0.057;stroke-miterlimit:4;stroke-dasharray:none;stroke-dashoffset:0;stroke-opacity:1"
       id="path4149"
       cx="-417.87927"
       cy="164.05931"
       rx="8.0812206"
       ry="11.743023"
       transform="scale(-1,1)"
       inkscape:export-xdpi="300"
       inkscape:export-ydpi="300" />
    <path
       style="fill:none;fill-rule:evenodd;stroke:#000000;stroke-width:2.49999952;stroke-linecap:butt;stroke-linejoin:miter;stroke-miterlimit:4;stroke-dasharray:none;stroke-opacity:1"
       d="M 474.82577,180.17809 400.9013,201.18576"
       id="path4151"
       inkscape:connector-curvature="0"
       inkscape:export-xdpi="300"
       inkscape:export-ydpi="300" />
    <path
       inkscape:connector-curvature="0"
       id="path4153"
       d="m 474.82577,192.49163 -73.92447,8.76972"
       style="fill:none;fill-rule:evenodd;stroke:#000000;stroke-width:2.49999952;stroke-linecap:butt;stroke-linejoin:miter;stroke-miterlimit:4;stroke-dasharray:none;stroke-opacity:1"
       inkscape:export-xdpi="300"
       inkscape:export-ydpi="300" />
    <path
       style="fill:none;fill-rule:evenodd;stroke:#000000;stroke-width:2.49999952;stroke-linecap:butt;stroke-linejoin:miter;stroke-miterlimit:4;stroke-dasharray:none;stroke-opacity:1"
       d="m 474.82577,201.01796 -73.92447,0.33558"
       id="path4155"
       inkscape:connector-curvature="0"
       inkscape:export-xdpi="300"
       inkscape:export-ydpi="300" />
    <path
       inkscape:connector-curvature="0"
       id="path4157"
       d="M 474.82577,220.47291 400.9013,202.0469"
       style="fill:none;fill-rule:evenodd;stroke:#000000;stroke-width:2.49999952;stroke-linecap:butt;stroke-linejoin:miter;stroke-miterlimit:4;stroke-dasharray:none;stroke-opacity:1"
       inkscape:export-xdpi="300"
       inkscape:export-ydpi="300" />
    <path
       style="fill:none;fill-rule:evenodd;stroke:#000000;stroke-width:2.49999952;stroke-linecap:butt;stroke-linejoin:miter;stroke-miterlimit:4;stroke-dasharray:none;stroke-opacity:1"
       d="m 474.82577,209.6726 -73.92447,-7.692"
       id="path4159"
       inkscape:connector-curvature="0"
       inkscape:export-xdpi="300"
       inkscape:export-ydpi="300" />
    <path
       style="fill:#ff6d6d;fill-rule:evenodd;stroke:#000000;stroke-width:1.5;stroke-linecap:butt;stroke-linejoin:miter;stroke-miterlimit:4;stroke-dasharray:none;stroke-opacity:1;fill-opacity:1"
       d="m 386.45428,197.10385 c 25.71964,-2.31679 11.08701,11.56052 -0.0357,19.36206 z"
       id="path4161"
       inkscape:connector-curvature="0"
       inkscape:export-xdpi="300"
       inkscape:export-ydpi="300" />
    <path
       style="fill:#ffffff;fill-rule:evenodd;stroke:#000000;stroke-width:0.64999998;stroke-linecap:butt;stroke-linejoin:miter;stroke-miterlimit:4;stroke-dasharray:none;stroke-opacity:1"
       d="m 302.31296,80.975015 c -1.29794,0.377385 11.70822,26.902075 -0.55469,89.101565 l 0.25781,-0.32031 c 0.0205,0.21157 0.77864,-0.81262 1.77735,-2.21485 l 7.2832,-9.07422 c 0.10902,-0.0257 0.19512,-0.007 0.25391,0.0664 0.4742,0.59583 -1.73342,7.72585 -1.83204,8.55469 -0.64974,5.46019 -2.18026,10.60763 -2.875,15.99804 -0.70721,5.48699 -0.96449,11.22789 -2.01171,16.38282 -1.35899,6.68947 11.21431,-3.50469 12.23437,-2.83789 0.31639,0.20681 0.316,6.47973 0.3457,7.08789 0.13331,2.73079 0.3311,31.54848 0.15821,32.07031 -2.98276,9.04685 10.96798,-6.4862 11.5625,-5.08399 1.26371,2.98051 0.17854,22.87111 2.30859,24.26368 1.76001,1.1505 8.71706,-7.91181 10.85352,-8.07618 5.60243,-0.43102 12.87768,2.45957 17.99804,5.80664 0.62664,0.4096 6.46127,-7.62358 7.74024,-8.48437 0.96178,-0.64727 15.03687,7.71821 18.98828,8.79883 l -0.11133,-129.01367 c -2.74479,-0.0618 -13.87568,-10.15973 -16.19336,-9.14063 -2.41071,1.06001 3.8151,11.71787 -2.95703,8.54102 -3.02372,-1.41843 -6.19208,-4.22789 -9.01367,-6.07227 -0.59504,-0.38896 -2.72041,-3.75963 -3.5586,-3.76953 -0.20709,-0.003 -1.81895,11.58507 -3.11132,11.14844 -0.68032,-0.22985 -5.2899,-3.92839 -8.51758,-6.43555 l 0.0469,-0.0566 C 311.82441,94.347446 303.2601,80.699626 302.31296,80.975015 Z"
       id="path4183"
       inkscape:connector-curvature="0"
       inkscape:export-xdpi="300"
       inkscape:export-ydpi="300" />
    <path
       style="fill:#ffffff;fill-rule:evenodd;stroke:#000000;stroke-width:0.99999994px;stroke-linecap:butt;stroke-linejoin:miter;stroke-opacity:1"
       d="m 382.87138,200.76305 c -8.73166,-6.80546 -68.94904,-20.48258 -83.46805,-21.07297 -4.90563,-0.19948 -9.48052,-0.93081 -14.31324,-1.19349 -0.58383,-0.0317 -2.33078,0.0168 -1.77428,0.11129 8.86049,1.50533 18.38748,5.88494 26.83024,8.35547 6.04882,1.77001 12.27737,2.87445 18.7499,4.05223 0.74163,0.13494 2.86264,0.2387 2.16483,0.4916 -5.70248,2.06672 -12.66426,-1.1202 -18.97397,-1.73768 -15.34597,-1.5018 -29.58434,-1.6995 -45.26912,-0.71561 -1.12369,0.0705 2.86673,1.12674 16.23021,3.58287 5.29185,0.9726 47.71371,6.11005 47.71933,6.20859 0.0178,0.31163 -8.28308,0.13328 -8.89524,0.1397 -6.55076,0.0688 -55.705,1.69129 -59.11862,6.21808 -0.25886,0.34327 10.21946,-0.025 22.10822,0.49539 17.2786,0.75641 37.5997,1.61499 55.22893,0.50914 l -11.71031,0.73455 c -6.44331,0.40419 -56.8575,9.37335 -53.07228,12.322 1.69634,1.32143 51.7862,-3.32005 55.68894,-3.91158 11.78908,-1.78697 -0.1954,-0.27772 15.17567,-2.4159 1.55838,-0.21678 6.15562,-1.01354 4.57748,-0.91454 -11.77665,0.73873 -17.71635,10.75606 -19.38267,16.06446 -0.32622,1.03923 1.04246,-1.13385 1.34808,-1.33937 2.83529,-1.90675 37.17855,-19.47429 38.8761,-17.70555 1.16362,1.21244 -3.15488,2.34195 -4.42291,3.62362 -2.06306,2.08524 -3.25789,4.40268 -4.96615,6.58558 -1.46969,1.87805 -2.77587,3.82171 -3.22753,5.84912 -0.0945,0.4242 -0.25941,1.69513 -0.28352,1.27259 -0.30493,-5.34415 17.05597,-13.71295 24.3269,-16.79288 z"
       id="path4382"
       inkscape:connector-curvature="0"
       sodipodi:nodetypes="cssssssssssssscssssssssssssc"
       inkscape:export-xdpi="300"
       inkscape:export-ydpi="300" />
    <ellipse
       ry="13.453435"
       rx="17.930208"
       cy="189.85185"
       cx="-254.37332"
       id="ellipse4195"
       style="opacity:1;fill:#800080;fill-opacity:1;stroke:none;stroke-width:0.057;stroke-miterlimit:4;stroke-dasharray:none;stroke-dashoffset:0;stroke-opacity:1"
       transform="matrix(-1,0,0.50438527,0.86347872,0,0)"
       inkscape:export-xdpi="300"
       inkscape:export-ydpi="300" />
    <ellipse
       ry="10.671595"
       rx="6.6526494"
       cy="164.05931"
       cx="-349.8793"
       id="ellipse4197"
       style="opacity:1;fill:#000000;fill-opacity:1;stroke:none;stroke-width:0.057;stroke-miterlimit:4;stroke-dasharray:none;stroke-dashoffset:0;stroke-opacity:1"
       transform="scale(-1,1)"
       inkscape:export-xdpi="300"
       inkscape:export-ydpi="300" />
    <path
       inkscape:connector-curvature="0"
       id="path4209"
       d="m 386.01635,197.25877 c -25.71964,-1.62193 -11.08701,8.09328 0.0357,13.55497 z"
       style="fill:#ffaaaa;fill-rule:evenodd;stroke:#000000;stroke-width:1.5;stroke-linecap:butt;stroke-linejoin:miter;stroke-miterlimit:4;stroke-dasharray:none;stroke-opacity:1"
       inkscape:export-xdpi="300"
       inkscape:export-ydpi="300" />
    <path
       style="fill:none;fill-rule:evenodd;stroke:#000000;stroke-width:1.5;stroke-linecap:butt;stroke-linejoin:miter;stroke-miterlimit:4;stroke-dasharray:none;stroke-opacity:1"
       d="m 386.35496,210.89563 0.59124,25.56505 8.27732,4.61815 6.47985,-3.65719"
       id="path4226"
       inkscape:connector-curvature="0"
       sodipodi:nodetypes="cccc"
       inkscape:export-xdpi="300"
       inkscape:export-ydpi="300" />
    <path
       style="fill:none;fill-rule:evenodd;stroke:#000000;stroke-width:1.5;stroke-linecap:butt;stroke-linejoin:miter;stroke-miterlimit:4;stroke-dasharray:none;stroke-opacity:1"
       d="m 386.91723,236.01176 c -3.20171,6.95824 -10.46192,8.9862 -14.32296,2.47414"
       id="path4234"
       inkscape:connector-curvature="0"
       inkscape:export-xdpi="300"
       inkscape:export-ydpi="300" />
    <path
       style="fill:none;fill-rule:evenodd;stroke:#000000;stroke-width:0.99999994px;stroke-linecap:butt;stroke-linejoin:miter;stroke-opacity:1"
       d="m 313.05571,150.09831 c 10.9067,-32.3923 -10.99457,-59.749664 19.9393,-20.82586"
       id="path4246"
       inkscape:connector-curvature="0"
       inkscape:export-xdpi="300"
       inkscape:export-ydpi="300" />
    <text
       sodipodi:linespacing="125%"
       id="text4392"
       y="229.1861"
       x="106.73193"
       style="font-style:normal;font-weight:normal;font-size:100.09880066px;line-height:125%;font-family:sans-serif;letter-spacing:0px;word-spacing:0px;fill:#000000;fill-opacity:1;stroke:none;stroke-width:1px;stroke-linecap:butt;stroke-linejoin:miter;stroke-opacity:1"
       xml:space="preserve"><tspan
         y="229.1861"
         x="106.73193"
         id="tspan4394"
         sodipodi:role="line">Cat      Fuse</tspan></text>
  </g>
</svg>
